<svg width="59px" height="59px" viewBox="0 0 59 59" version="1.1" xmlns="http://www.w3.org/2000/svg" xmlns:xlink="http://www.w3.org/1999/xlink">
    <g id="Page-1" stroke="none" stroke-width="1" fill="none" fill-rule="evenodd">
        <g id="Homepage" transform="translate(-30.000000, -85.000000)" fill="#FFFFFF">
            <g id="Logo/White" transform="translate(30.000000, 85.000000)">
                <g id="Logo">
                    <polygon id="Fill-1" points="0 58.9154664 12.2739832 58.9154664 12.2739832 0 0 0"></polygon>
                    <polygon id="Fill-2" points="46.6414832 58.9154664 58.9149706 58.9154664 58.9149706 0 46.6414832 0"></polygon>
                    <path d="M35.0075013,18.4152139 C32.667829,18.4152139 30.6085307,19.656445 29.4039887,21.5375038 C28.1996945,19.656445 26.1406441,18.4152139 23.8007239,18.4152139 C20.0871945,18.4152139 17.0767071,21.5375038 17.0767071,25.3898567 C17.0767071,33.5264029 26.0419803,37.5944282 29.4039887,40.5000542 C32.7659971,37.5944282 41.7315181,33.5264029 41.7315181,25.3898567 C41.7315181,21.5375038 38.7207828,18.4152139 35.0075013,18.4152139" id="Fill-3"></path>
                </g>
            </g>
        </g>
    </g>
</svg>